<?xml version="1.0" standalone="no"?>
<!DOCTYPE svg PUBLIC "-//W3C//DTD SVG 20010904//EN"
 "http://www.w3.org/TR/2001/REC-SVG-20010904/DTD/svg10.dtd">
<svg version="1.0" xmlns="http://www.w3.org/2000/svg"
 width="100.000000pt" height="50.000000pt" viewBox="0 0 100.000000 50.000000"
 preserveAspectRatio="xMidYMid meet">

<g transform="translate(0.000000,50.000000) scale(0.100000,-0.100000)"
fill="#000000" stroke="none">
<path d="M340 460 c0 -27 3 -30 30 -30 27 0 30 3 30 30 0 27 -3 30 -30 30 -27
0 -30 -3 -30 -30z"/>
<path d="M630 425 l0 -65 -34 16 c-93 45 -195 -47 -171 -155 15 -69 103 -119
161 -92 21 9 23 14 14 31 -7 13 -21 20 -39 20 -62 0 -94 85 -48 128 29 27 57
28 88 3 21 -17 24 -29 28 -105 l3 -86 29 0 29 0 0 185 0 185 -30 0 -30 0 0
-65z"/>
<path d="M30 200 l0 -190 29 0 29 0 4 141 c3 134 4 142 27 160 31 25 63 24 89
-4 46 -49 14 -137 -51 -137 -36 0 -55 -35 -28 -50 27 -14 55 -13 96 4 100 42
100 210 0 252 -44 18 -69 18 -105 -1 -27 -14 -30 -14 -30 0 0 10 -10 15 -30
15 l-30 0 0 -190z"/>
<path d="M340 255 l0 -135 30 0 30 0 0 135 0 135 -30 0 -30 0 0 -135z"/>
<path d="M720 305 c0 -87 14 -139 43 -163 22 -19 78 -25 111 -13 27 11 27 13
13 34 -11 16 -22 21 -45 19 -42 -5 -52 18 -52 122 l0 86 -35 0 -35 0 0 -85z"/>
<path d="M910 255 l0 -135 35 0 35 0 0 135 0 135 -35 0 -35 0 0 -135z"/>
</g>
</svg>
